<?xml version="1.0" encoding="UTF-8"?>
<svg width="374px" height="124px" viewBox="0 0 374 124" version="1.1" xmlns="http://www.w3.org/2000/svg" xmlns:xlink="http://www.w3.org/1999/xlink">
    <title>Logo</title>
    <g id="Kirby-Pay" stroke="none" stroke-width="1" fill="none" fill-rule="evenodd">
        <g id="Artboard" transform="translate(-13.000000, -138.000000)">
            <g id="Logo" transform="translate(13.000000, 138.000000)">
                <g id="Imagotipo" fill="#4DA346">
                    <path d="M53.328,2.13162821e-14 L50.828,1.444 L2.5,29.346 L-3.55271368e-14,30.79 L-3.55271368e-14,92.368 L2.5,93.811 L50.828,121.713 L53.328,123.157 L55.828,121.713 L104.157,93.811 L106.657,92.368 L106.657,30.79 L104.157,29.346 L55.828,1.444 L53.328,2.13162821e-14 Z M53.328,5.774 L101.657,33.677 L101.657,89.481 L53.328,117.383 L5,89.481 L5,33.677 L53.328,5.774 Z" id="Fill-1"></path>
                    <polygon id="Fill-2" points="32.2 36.442 22.722 36.442 40.579 61.543 21.072 86.716 31.196 86.716 49.914 61.83 49.914 61.543"></polygon>
                    <path d="M68.228,61.83 L60.554,61.83 L60.554,41.534 L68.013,41.534 C75.615,41.534 79.631,44.331 79.631,51.503 C79.631,58.173 76.547,61.83 68.228,61.83 Z M69.304,36.442 L54.817,36.442 L54.817,86.716 L60.554,86.716 L60.554,66.85 L68.228,66.85 C79.775,66.85 85.584,60.897 85.584,50.857 C85.584,40.746 79.273,36.442 69.304,36.442 Z" id="Fill-3"></path>
                </g>
                <g id="Kirby-Pay" transform="translate(131.581000, 36.258000)" fill="#231F20">
                    <polygon id="Fill-4" points="13.972 25.451 8.779 31.476 8.779 38.644 -1.42108547e-14 38.644 -1.42108547e-14 3.324 8.779 3.324 8.779 19.53 22.855 3.324 33.242 3.324 19.79 18.802 34.385 38.644 23.426 38.644"></polygon>
                    <path d="M46.741,13.453 L46.741,38.644 L38.327,38.644 L38.327,13.453 L46.741,13.453 Z M37.549,4.779 C37.549,2.026 39.73,3.55271368e-15 42.483,3.55271368e-15 C45.184,3.55271368e-15 47.417,2.026 47.417,4.779 C47.417,7.48 45.184,9.505 42.483,9.505 C39.73,9.505 37.549,7.48 37.549,4.779 Z" id="Fill-5"></path>
                    <path d="M70.321,21.036 C66.217,21.192 63.62,22.283 61.647,24.205 L61.647,38.644 L53.18,38.644 L53.18,13.453 L61.647,13.453 L61.647,16.154 C63.88,14.232 66.581,13.038 70.321,13.038 L70.321,21.036 Z" id="Fill-6"></path>
                    <path d="M94.054,26.075 C94.054,22.646 91.561,19.998 88.133,19.998 C86.315,19.998 84.497,20.464 82.939,22.179 L82.939,30.074 C84.497,31.788 86.315,32.255 88.133,32.255 C91.561,32.255 94.054,29.606 94.054,26.075 Z M102.313,26.075 C102.313,33.606 96.599,39.319 89.795,39.319 C87.042,39.319 84.809,38.592 82.939,37.398 L82.939,38.644 L74.472,38.644 L74.472,1.766 L82.939,1.766 L82.939,14.803 C84.809,13.609 87.042,12.881 89.795,12.881 C96.599,12.881 102.313,18.595 102.313,26.075 Z" id="Fill-7"></path>
                    <polygon id="Fill-8" points="134.044 13.453 118.358 50.642 109.528 50.642 114.774 38.125 102.464 13.453 111.398 13.453 118.566 29.087 125.162 13.453"></polygon>
                    <path d="M168.007,16.257 C168.007,13.089 165.462,11.011 161.618,11.011 L156.321,11.011 L156.321,21.971 L161.618,21.971 C165.462,21.971 168.007,19.738 168.007,16.257 Z M176.734,16.257 C176.734,24.516 170.708,29.659 161.099,29.659 L156.321,29.659 L156.321,38.644 L147.542,38.644 L147.542,3.324 L161.775,3.324 C171.02,3.324 176.734,8.31 176.734,16.257 Z" id="Fill-9"></path>
                    <path d="M198.389,29.918 L198.389,22.127 C196.779,20.361 195.013,19.893 193.196,19.893 C189.767,19.893 187.222,22.543 187.222,26.022 C187.222,29.502 189.767,32.152 193.196,32.152 C195.013,32.152 196.779,31.684 198.389,29.918 Z M206.804,13.453 L206.804,38.644 L198.389,38.644 L198.389,37.294 C196.52,38.541 194.286,39.319 191.481,39.319 C184.677,39.319 178.963,33.502 178.963,26.022 C178.963,18.491 184.677,12.778 191.481,12.778 C194.286,12.778 196.52,13.504 198.389,14.752 L198.389,13.453 L206.804,13.453 Z" id="Fill-10"></path>
                    <polygon id="Fill-11" points="241.236 13.453 225.549 50.642 216.719 50.642 221.965 38.125 209.655 13.453 218.589 13.453 225.757 29.087 232.354 13.453"></polygon>
                </g>
            </g>
        </g>
    </g>
</svg>